<svg version="1.1" id="Layer_1" xmlns="http://www.w3.org/2000/svg" xmlns:xlink="http://www.w3.org/1999/xlink" x="0px" y="0px"
	 width="62px" height="45px" viewBox="0 0 62 45" enable-background="new 0 0 62 45" xml:space="preserve">
<path fill="#ED0583" d="M47.397,34.857c1.598,0,2.774,1.3,2.622,2.898s-1.576,2.898-3.174,2.898s-2.774-1.3-2.622-2.898
	C44.375,36.157,45.799,34.857,47.397,34.857 M47.812,30.51c-4.001,0-7.554,3.244-7.935,7.245S42.429,45,46.431,45
	s7.554-3.244,7.935-7.245C54.748,33.754,51.813,30.51,47.812,30.51L47.812,30.51z"/>
<path fill="#ED0583" d="M20.047,34.857c1.598,0,2.774,1.3,2.622,2.898s-1.576,2.898-3.174,2.898s-2.774-1.3-2.622-2.898
	C17.025,36.157,18.449,34.857,20.047,34.857 M20.461,30.51c-4.001,0-7.554,3.244-7.935,7.245C12.145,41.756,15.079,45,19.081,45
	s7.554-3.244,7.935-7.245S24.463,30.51,20.461,30.51L20.461,30.51z"/>
<path fill="#ED0583" d="M47.397,34.857c1.598,0,2.774,1.3,2.622,2.898s-1.576,2.898-3.174,2.898s-2.774-1.3-2.622-2.898
	C44.375,36.157,45.799,34.857,47.397,34.857 M47.812,30.51c-4.001,0-7.554,3.244-7.935,7.245S42.429,45,46.431,45
	s7.554-3.244,7.935-7.245C54.748,33.754,51.813,30.51,47.812,30.51L47.812,30.51z"/>
<path fill="#ED0583" d="M20.047,34.857c1.598,0,2.774,1.3,2.622,2.898s-1.576,2.898-3.174,2.898s-2.774-1.3-2.622-2.898
	C17.025,36.157,18.449,34.857,20.047,34.857 M20.461,30.51c-4.001,0-7.554,3.244-7.935,7.245C12.145,41.756,15.079,45,19.081,45
	s7.554-3.244,7.935-7.245S24.463,30.51,20.461,30.51L20.461,30.51z"/>
<g>
	<path fill="#ED0583" d="M38.424,33.327h-9.346c0.613,1.439,0.86,3.037,0.703,4.691c-0.041,0.427-0.111,0.85-0.203,1.266h7.524
		c-0.049-0.587-0.048-1.186,0.01-1.793C37.251,36.024,37.703,34.61,38.424,33.327z"/>
	<path fill="#ED0583" d="M9.761,37.491c0.14-1.467,0.591-2.881,1.313-4.164H8.067c-0.8,0-1.511,0.649-1.587,1.449l-0.291,3.059
		c-0.076,0.8,0.511,1.449,1.311,1.449h2.252C9.703,38.697,9.703,38.098,9.761,37.491z"/>
	<path fill="#ED0583" d="M59.105,33.327h-2.677c0.613,1.439,0.86,3.037,0.703,4.691c-0.041,0.427-0.111,0.85-0.203,1.266h1.609
		c0.8,0,1.511-0.649,1.587-1.449l0.291-3.059C60.492,33.976,59.905,33.327,59.105,33.327z"/>
</g>
<path fill="#ED0583" d="M61.636,21.162c-0.405-0.723-1.08-0.726-1.08-0.726l-2.723-0.341c0,0-0.509-0.149-0.782-0.423
	c-0.273-0.273-0.395-0.825-0.395-0.825L56.124,9.99h2.4c0.756,0,1.369-0.613,1.369-1.369s-0.613-1.369-1.369-1.369H44.557
	c-0.717,0-1.304,0.552-1.363,1.254h-0.001L41.238,29.06c-0.03,0.315,0.044,0.606,0.192,0.843c1.866-1.406,4.096-2.172,6.382-2.172
	c2.605,0,4.982,0.985,6.733,2.777h5.081c0.8,0,1.511-0.649,1.587-1.449l0.61-6.4C61.823,22.661,61.94,21.705,61.636,21.162z
	 M52.24,19.378l-5.76-0.725c-0.8,0-1.387-0.649-1.311-1.449l0.687-7.214h7.286l0.572,6.597l0.114,1.341
	C53.751,18.729,53.041,19.378,52.24,19.378z"/>
<path fill="#ED0583" d="M38.199,29.061L40.83,1.449C40.906,0.649,40.319,0,39.519,0H13.276c-0.8,0-1.511,0.649-1.587,1.449
	L11.523,3.19h6.805c0.756,0,1.369,0.613,1.369,1.369s-0.613,1.369-1.369,1.369H1.523c-0.756,0-1.369,0.613-1.369,1.369
	s0.613,1.369,1.369,1.369h13.122c0.756,0,1.369,0.613,1.369,1.369s-0.613,1.369-1.369,1.369H8.346c-0.756,0-1.369,0.613-1.369,1.369
	s0.613,1.369,1.369,1.369h13.967h3.17c0.756,0,1.369,0.613,1.369,1.369c0,0.756-0.613,1.369-1.369,1.369H4.27
	c-0.756,0-1.369,0.613-1.369,1.369c0,0.756,0.613,1.369,1.369,1.369h13.182c0.756,0,1.369,0.613,1.369,1.369
	c0,0.756-0.613,1.369-1.369,1.369H9.697l-0.64,6.712c-0.076,0.8,0.511,1.449,1.311,1.449h2.976c1.999-1.791,4.522-2.777,7.117-2.777
	c2.605,0,4.982,0.985,6.733,2.777h9.417C37.412,30.51,38.123,29.861,38.199,29.061z"/>
</svg>
